<svg width="24" height="24" viewBox="0 0 24 24" fill="none" xmlns="http://www.w3.org/2000/svg">
<path d="M17.3906 4.88184L17.3516 4.87598H17.3506C17.3499 4.87586 17.3489 4.87522 17.3477 4.875C17.345 4.87456 17.341 4.87389 17.3359 4.87305C17.3255 4.87133 17.31 4.86842 17.29 4.86523C17.2498 4.8588 17.1901 4.84988 17.1152 4.83887C16.9656 4.81684 16.7522 4.78716 16.498 4.75781C15.9897 4.69913 15.316 4.64062 14.6572 4.64062C13.2774 4.64071 12.1312 5.05946 11.3301 5.86133C10.529 6.66332 10.0781 7.84352 10.0781 9.35645V11.9531H7.03125V15.5156H10.0781V23.7979C4.39049 22.8784 0.046875 17.9471 0.046875 12C0.046875 5.39851 5.39851 0.046875 12 0.046875C18.6015 0.046875 23.9531 5.39851 23.9531 12C23.9531 17.9472 19.6095 22.8784 13.9219 23.7979V15.5156H16.7109L16.7178 15.4756L17.249 12.0068L17.2578 11.9531H13.9219V9.74902C13.9219 9.28133 14.0364 8.82484 14.3291 8.48633C14.6208 8.14919 15.096 7.92188 15.8311 7.92188H17.3906V4.88184Z" fill="#1877F2" stroke="#1447E6" stroke-width="0.09375"/>
<path d="M14.6572 4.73438C15.3111 4.73438 15.9808 4.79309 16.4873 4.85156C16.7403 4.88078 16.9527 4.90973 17.1016 4.93164C17.1758 4.94256 17.2345 4.95163 17.2744 4.95801C17.2825 4.9593 17.2903 4.95988 17.2969 4.96094V7.82812H15.8311C15.0755 7.82812 14.5723 8.06329 14.2588 8.42578C13.9464 8.78701 13.8281 9.26766 13.8281 9.74902V12.0469H17.1494L16.6309 15.4219H13.8281V23.8125C13.2231 23.9052 12.6121 23.9533 12 23.9531L11.5312 23.9443C11.0761 23.9267 10.6224 23.8816 10.1719 23.8125V15.4219H7.125V12.0469H10.1719V9.35645C10.1719 7.86205 10.6167 6.70726 11.3965 5.92676C12.1762 5.14638 13.2965 4.73444 14.6572 4.73438Z" fill="white" stroke="#1447E6" stroke-width="0.09375"/>
</svg>
