<svg width="24" height="24" viewBox="0 0 24 24" fill="none" xmlns="http://www.w3.org/2000/svg">
<path d="M12 2.25C14.4741 2.25 16.7249 3.18083 18.4443 4.70117L15.9658 7.17969C14.8873 6.29004 13.5085 5.75 12 5.75C8.54843 5.75 5.75 8.54843 5.75 12C5.75 15.4516 8.54843 18.25 12 18.25C14.7212 18.25 17.0282 16.5077 17.8867 14.083L18.0049 13.75H12.25V10.25H20.75V10.291H21.5957C21.6943 10.8466 21.75 11.4171 21.75 12C21.75 17.3844 17.3844 21.75 12 21.75C6.61557 21.75 2.25 17.3844 2.25 12C2.25 6.61557 6.61557 2.25 12 2.25Z" fill="#FFC107" stroke="#1447E6" stroke-width="0.5"/>
<path d="M11.9997 2.25C14.474 2.25 16.7255 3.18064 18.445 4.70117L15.9665 7.17871C14.8879 6.28911 13.5082 5.75 11.9997 5.75C9.48805 5.75013 7.32654 7.23249 6.33366 9.36816L3.47722 7.27344C5.14159 4.27849 8.3321 2.25012 11.9997 2.25Z" fill="#FF3D00" stroke="#1447E6" stroke-width="0.5"/>
<path d="M12 22.0001C14.583 22.0001 16.93 21.0116 18.7045 19.4041L15.6095 16.7851C14.572 17.5746 13.3038 18.0015 12 18.0001C9.399 18.0001 7.1905 16.3416 6.3585 14.0271L3.0975 16.5396C4.7525 19.7781 8.1135 22.0001 12 22.0001Z" fill="#4CAF50"/>
<path d="M21.8055 10.0415H21V10H12V14H17.6515C17.2571 15.1082 16.5467 16.0766 15.608 16.7855L15.6095 16.7845L18.7045 19.4035C18.4855 19.6025 22 17 22 12C22 11.3295 21.931 10.675 21.8055 10.0415Z" fill="#1976D2"/>
</svg>
